<svg width="1200" height="720" viewBox="0 0 1200 720" fill="none" xmlns="http://www.w3.org/2000/svg">
  <rect width="1200" height="720" rx="24" fill="#0B1020"/>
  <rect x="40" y="40" width="1120" height="640" rx="16" fill="#11182E" stroke="#2A375B"/>
  <text x="80" y="95" fill="#D8E1FF" font-family="Arial, sans-serif" font-size="28" font-weight="700">Promotion Candidate Results</text>

  <rect x="80" y="140" width="520" height="500" rx="12" fill="#172347" stroke="#364A7E"/>
  <text x="110" y="185" fill="#EAF0FF" font-family="Arial, sans-serif" font-size="24" font-weight="600">Top Recommendations</text>

  <rect x="110" y="220" width="460" height="90" rx="10" fill="#21315E"/>
  <text x="130" y="258" fill="#F2F6FF" font-family="Arial, sans-serif" font-size="20" font-weight="600">Es Kopi Susu Aren</text>
  <text x="130" y="286" fill="#B8C7EF" font-family="Arial, sans-serif" font-size="16">High score, strong demand, hero-item potential</text>

  <rect x="110" y="330" width="460" height="90" rx="10" fill="#21315E"/>
  <text x="130" y="368" fill="#F2F6FF" font-family="Arial, sans-serif" font-size="20" font-weight="600">Croissant Butter</text>
  <text x="130" y="396" fill="#B8C7EF" font-family="Arial, sans-serif" font-size="16">Strong morning demand, high repeat behavior</text>

  <rect x="110" y="440" width="460" height="90" rx="10" fill="#21315E"/>
  <text x="130" y="478" fill="#F2F6FF" font-family="Arial, sans-serif" font-size="20" font-weight="600">Matcha Latte</text>
  <text x="130" y="506" fill="#B8C7EF" font-family="Arial, sans-serif" font-size="16">Growth trend, weekend social share potential</text>

  <rect x="640" y="140" width="480" height="500" rx="12" fill="#13203F" stroke="#364A7E"/>
  <text x="670" y="185" fill="#EAF0FF" font-family="Arial, sans-serif" font-size="24" font-weight="600">Instagram Activation</text>
  <rect x="670" y="220" width="420" height="14" rx="7" fill="#3B4F86"/>
  <rect x="670" y="248" width="390" height="14" rx="7" fill="#3B4F86"/>
  <rect x="670" y="290" width="420" height="14" rx="7" fill="#3B4F86"/>
  <rect x="670" y="318" width="370" height="14" rx="7" fill="#3B4F86"/>
  <rect x="670" y="360" width="420" height="14" rx="7" fill="#3B4F86"/>
  <rect x="670" y="388" width="340" height="14" rx="7" fill="#3B4F86"/>
  <rect x="670" y="470" width="180" height="44" rx="10" fill="#5A7CFF"/>
  <text x="715" y="499" fill="white" font-family="Arial, sans-serif" font-size="18" font-weight="600">Schedule</text>
</svg>
